<svg width="153" height="65" viewBox="0 0 153 65" fill="none" xmlns="http://www.w3.org/2000/svg">
<rect width="153" height="65" fill="#E5E5E5"/>
<rect width="376" height="253" transform="translate(-80 -26)" fill="white"/>
<path d="M15.408 50.436C17.568 49.896 19.62 48.204 19.62 44.892C19.62 37.62 11.232 37.8 11.232 37.8H2.844V63H11.232C12.924 63 19.98 62.676 19.98 55.764C19.98 55.764 20.16 51.408 15.408 50.436ZM7.02 48.312V41.976H11.232C11.232 41.976 15.408 41.796 15.408 45.18C15.408 48.312 11.232 48.312 11.232 48.312H7.02ZM11.232 58.824H7.02V52.524H11.232C11.232 52.524 15.768 52.272 15.768 55.656C15.768 58.392 12.996 58.824 11.232 58.824ZM37.7474 63H42.6794L35.8394 52.056C38.2874 51.372 41.3834 49.608 41.3834 45.144C41.3834 37.8 32.9594 37.8 32.9594 37.8H24.5714V42.012L28.5674 48.312H24.5714V63H28.7834V52.488H31.1954L37.7474 63ZM33.4994 48.276L29.5754 42.012H32.9594C32.9594 42.012 37.1714 42.012 37.1714 45.144C37.1714 47.628 34.6154 48.168 33.4994 48.276ZM55.1464 56.16C60.2944 56.16 64.5064 51.948 64.5064 46.8C64.5064 41.652 60.2944 37.44 55.1464 37.44C49.9984 37.44 45.7864 41.652 45.7864 46.8C45.7864 51.948 49.9984 56.16 55.1464 56.16ZM55.1464 41.616C58.0264 41.616 60.3304 43.92 60.3304 46.8C60.3304 49.68 58.0264 51.984 55.1464 51.984C52.2664 51.984 49.9624 49.68 49.9624 46.8C49.9624 43.92 52.2664 41.616 55.1464 41.616ZM63.3544 63V58.824H46.7224V63H63.3544ZM92.5754 64.008L102.655 37.8H98.1194L92.5754 52.668L87.0314 37.8H82.3514L76.8074 52.668L71.2994 37.8H66.7634L76.8074 64.008L84.6914 43.272L92.5754 64.008ZM126.559 63V37.8H122.383V55.728L109.819 37.8H105.571V63H109.783V45.072L122.311 63H126.559Z" fill="#FEFCFB"/>
<path d="M7.056 1.8H2.844V27H7.056C13.32 27 21.78 25.164 21.78 14.4C21.78 3.204 13.176 1.8 7.056 1.8ZM7.056 22.896V5.904C7.056 5.904 17.532 4.32 17.532 14.4C17.532 24.336 7.056 22.896 7.056 22.896ZM35.2479 20.16C40.3959 20.16 44.6079 15.948 44.6079 10.8C44.6079 5.652 40.3959 1.44 35.2479 1.44C30.0999 1.44 25.8879 5.652 25.8879 10.8C25.8879 15.948 30.0999 20.16 35.2479 20.16ZM35.2479 5.616C38.1279 5.616 40.4319 7.92 40.4319 10.8C40.4319 13.68 38.1279 15.984 35.2479 15.984C32.3679 15.984 30.0639 13.68 30.0639 10.8C30.0639 7.92 32.3679 5.616 35.2479 5.616ZM43.4559 27V22.824H26.8239V27H43.4559ZM62.849 27H67.781L60.941 16.056C63.389 15.372 66.485 13.608 66.485 9.144C66.485 1.8 58.061 1.8 58.061 1.8H49.673V6.012L53.669 12.312H49.673V27H53.885V16.488H56.297L62.849 27ZM58.601 12.276L54.677 6.012H58.061C58.061 6.012 62.273 6.012 62.273 9.144C62.273 11.628 59.717 12.168 58.601 12.276ZM77.1879 5.652H79.9959V1.8H70.1679V5.652H72.9759V23.148H70.0239V27H80.1399V23.148H77.1879V5.652ZM95.8939 24.084L97.0099 27H101.546L91.4659 1.08L81.4219 27H85.9579L87.0379 24.084H95.8939ZM88.4059 20.448L91.4659 11.7L94.5259 20.448H88.4059ZM125.363 27V1.8H121.187V19.728L108.623 1.8H104.375V27H108.587V9.072L121.115 27H125.363Z" fill="#EC2864"/>
</svg>
